<svg width="163" height="37" viewBox="0 0 163 37" fill="none" xmlns="http://www.w3.org/2000/svg">
<path d="M63.1821 32.8149V10.4149H67.2141V32.8149H63.1821ZM77.0901 33.0709C75.8528 33.0709 74.7648 32.7936 73.8261 32.2389C72.9088 31.6629 72.1941 30.8736 71.6821 29.8709C71.1701 28.8683 70.9141 27.7163 70.9141 26.4149V16.9429H74.9461V26.0949C74.9461 27.2896 75.2341 28.1856 75.8101 28.7829C76.4075 29.3803 77.2501 29.6789 78.3381 29.6789C79.5755 29.6789 80.5355 29.2736 81.2181 28.4629C81.9008 27.6309 82.2421 26.4789 82.2421 25.0069V16.9429H86.2741V32.8149H82.3061V30.7349H81.7301C81.4741 31.2683 80.9941 31.7909 80.2901 32.3029C79.5861 32.8149 78.5195 33.0709 77.0901 33.0709ZM94.1529 32.8149L88.4569 10.4149H92.8089L97.5449 30.0949H97.9929L102.729 10.4149H107.081L101.385 32.8149H94.1529ZM109.134 32.8149V10.4149H118.35C119.758 10.4149 120.995 10.7029 122.062 11.2789C123.15 11.8336 123.993 12.6229 124.59 13.6469C125.209 14.6709 125.518 15.8869 125.518 17.2949V17.7429C125.518 19.1296 125.198 20.3456 124.558 21.3909C123.939 22.4149 123.086 23.2149 121.998 23.7909C120.931 24.3456 119.715 24.6229 118.35 24.6229H113.358V32.8149H109.134ZM113.358 20.7829H117.934C118.937 20.7829 119.747 20.5056 120.366 19.9509C120.985 19.3963 121.294 18.6389 121.294 17.6789V17.3589C121.294 16.3989 120.985 15.6416 120.366 15.0869C119.747 14.5323 118.937 14.2549 117.934 14.2549H113.358V20.7829ZM127.807 32.8149V10.4149H135.839L140.287 29.9349H140.863V10.4149H145.023V32.8149H136.991L132.543 13.2949H131.967V32.8149H127.807Z" fill="white"/>
<path d="M60.0046 12.4171H51.0257C47.716 12.4171 45.0313 15.0972 45.0257 18.4069L45.0148 24.8047C45.0092 28.1224 47.6972 30.8149 51.0148 30.8149H60.0046" stroke="white" stroke-width="4.1" stroke-linejoin="round"/>
<path d="M151.391 16.8149H150.005V11.8511H148.137V10.6759H153.268V11.8511H151.391V16.8149ZM160.894 16.8149H159.649V12.6667L157.903 16.1923H157.009L155.255 12.6667V16.8149H154.01V10.6759H155.553L157.465 14.447L159.359 10.6759H160.894V16.8149Z" fill="white"/>
<rect x="0.932861" y="5.18507" width="33" height="31" rx="8" fill="#0075FF"/>
<path d="M25.5759 13.5092L21.1755 18.0659C20.9871 18.2612 20.7273 18.3716 20.4559 18.3716H15.9115C15.6466 18.3716 15.3925 18.4767 15.205 18.6638L14.7347 19.1332C14.5468 19.3208 14.4412 19.5755 14.4412 19.841V21.9993C14.4412 22.2634 14.5456 22.5167 14.7318 22.7041L15.2084 23.1838C15.3961 23.3727 15.6515 23.479 15.9178 23.479H20.4561C20.7297 23.479 20.9917 23.5914 21.1804 23.7895L25.5808 28.4106C26.1869 29.0473 25.7356 30.1001 24.8566 30.1001H13.4155C13.1494 30.1001 12.8943 29.9939 12.7068 29.8051L8.35815 25.4311C8.17179 25.2441 8.06714 24.9909 8.06714 24.7269V17.1363C8.06714 16.8706 8.17381 16.6148 8.36206 16.4272L12.7107 12.1059C12.898 11.9198 13.1519 11.8149 13.4159 11.8149H24.8569C25.7392 11.8149 26.189 12.8746 25.5759 13.5092Z" fill="white"/>
</svg>
