<svg width="49" height="34" viewBox="0 0 49 34" fill="none" xmlns="http://www.w3.org/2000/svg">
<path fill-rule="evenodd" clip-rule="evenodd" d="M6.125 9.5625C6.125 8.9757 6.81056 8.5 7.65625 8.5H41.3438C42.1894 8.5 42.875 8.9757 42.875 9.5625C42.875 10.1493 42.1894 10.625 41.3438 10.625H7.65625C6.81056 10.625 6.125 10.1493 6.125 9.5625ZM6.125 17C6.125 16.4132 6.81056 15.9375 7.65625 15.9375H41.3438C42.1894 15.9375 42.875 16.4132 42.875 17C42.875 17.5868 42.1894 18.0625 41.3438 18.0625H7.65625C6.81056 18.0625 6.125 17.5868 6.125 17ZM22.9688 24.4375C22.9688 23.8507 23.6543 23.375 24.5 23.375H41.3438C42.1894 23.375 42.875 23.8507 42.875 24.4375C42.875 25.0243 42.1894 25.5 41.3438 25.5H24.5C23.6543 25.5 22.9688 25.0243 22.9688 24.4375Z" fill="#0095FF"/>
</svg>
